<?xml version="1.0" encoding="UTF-8"?>
<svg version="1.1" xmlns="http://www.w3.org/2000/svg" width="755" height="176">
<path d="M0 0 C249.15 0 498.3 0 755 0 C755 58.08 755 116.16 755 176 C505.85 176 256.7 176 0 176 C0 117.92 0 59.84 0 0 Z " fill="#FBFAFB" transform="translate(0,0)"/>
<path d="M0 0 C15.3169262 12.09031225 25.69750415 27.57000532 29 47 C29.51219298 53.42619733 29.35100179 59.88759581 29.29296875 66.328125 C29.28736192 68.17185112 29.28309697 70.01558175 29.28010559 71.85931396 C29.26874234 76.67287906 29.23935017 81.48616537 29.20599365 86.29962158 C29.17510738 91.22705313 29.16156089 96.15453046 29.14648438 101.08203125 C29.11447094 110.72147553 29.06337979 120.36071443 29 130 C19.02004587 130.02326035 9.04009829 130.04098449 -0.93987751 130.05181217 C-5.57491838 130.0570112 -10.20994058 130.0640542 -14.8449707 130.07543945 C-19.32536691 130.0863749 -23.80574526 130.09229924 -28.28615379 130.09487724 C-29.98800118 130.0967124 -31.68984769 130.10029567 -33.39168739 130.10573006 C-58.54525734 130.18279285 -77.20489357 126.12861329 -96 108 C-109.33723002 92.86167396 -115.94618528 73.65071499 -115.32421875 53.59765625 C-113.49215836 33.26840788 -104.73620514 15.90162712 -89.1796875 2.5859375 C-62.19684693 -18.47899548 -28.36159737 -19.74917514 0 0 Z " fill="#7347F1" transform="translate(140,29)"/>
<path d="M0 0 C5.69317759 4.49397635 9.22934654 10.415942 10.8359375 17.51171875 C11.85590884 27.8814274 10.00033522 38.63509394 3.37890625 46.98828125 C0.24201596 50.08546406 -3.36279219 52.31867818 -7.1640625 54.51171875 C-8.7109375 55.43984375 -8.7109375 55.43984375 -10.2890625 56.38671875 C-17.61444125 59.23832307 -27.32051463 58.56408424 -34.6015625 55.94921875 C-41.83327543 52.53758009 -48.4857235 46.69731121 -52.1640625 39.51171875 C-55.04096677 31.14438449 -56.02699177 20.07617259 -52.7265625 11.63671875 C-48.46264449 3.7868909 -41.90591943 -3.7997798 -33.1640625 -6.48828125 C-20.19314084 -9.04342861 -10.93857067 -7.52273542 0 0 Z " fill="#7449F1" transform="translate(119.1640625,62.48828125)"/>
<path d="M0 0 C35.46666667 0 35.46666667 0 42.05859375 5.81640625 C42.74115234 6.68072266 42.74115234 6.68072266 43.4375 7.5625 C43.91058594 8.14128906 44.38367188 8.72007813 44.87109375 9.31640625 C48.43708144 14.63454015 47.48598239 21.90497084 47 28 C45.4831212 33.39975877 42.77899618 36.99923496 38 40 C32.46328078 42.83791638 28.22772584 43.39190211 22.0625 43.1875 C18.0715625 43.0946875 18.0715625 43.0946875 14 43 C14 50.59 14 58.18 14 66 C9.38 66 4.76 66 0 66 C0 44.22 0 22.44 0 0 Z " fill="#754BF1" transform="translate(455,42)"/>
<path d="M0 0 C6.47515077 3.22609462 11.0074048 7.94375036 13.578125 14.71484375 C15.43124311 21.77985653 14.5496972 28.13526253 11.59765625 34.76953125 C7.92767708 40.89644325 2.01653486 45.13447036 -4.796875 47.09765625 C-14.07187031 48.2117698 -19.51780731 45.97779796 -27.046875 40.91015625 C-32.56207927 35.26960643 -34.04521498 29.87017153 -34.296875 22.03515625 C-34.09742298 16.24481482 -33.57833823 11.62907448 -29.796875 7.09765625 C-27.30165405 4.77763166 -24.68145151 2.90262518 -21.796875 1.09765625 C-20.8275 0.47890625 -19.858125 -0.13984375 -18.859375 -0.77734375 C-12.51854121 -3.10662963 -6.25617903 -2.35153583 0 0 Z " fill="#050505" transform="translate(305.796875,61.90234375)"/>
<path d="M0 0 C5.69317759 4.49397635 9.22934654 10.415942 10.8359375 17.51171875 C11.85590884 27.8814274 10.00033522 38.63509394 3.37890625 46.98828125 C0.24201596 50.08546406 -3.36279219 52.31867818 -7.1640625 54.51171875 C-8.7109375 55.43984375 -8.7109375 55.43984375 -10.2890625 56.38671875 C-17.61444125 59.23832307 -27.32051463 58.56408424 -34.6015625 55.94921875 C-41.83327543 52.53758009 -48.4857235 46.69731121 -52.1640625 39.51171875 C-55.04096677 31.14438449 -56.02699177 20.07617259 -52.7265625 11.63671875 C-48.46264449 3.7868909 -41.90591943 -3.7997798 -33.1640625 -6.48828125 C-20.19314084 -9.04342861 -10.93857067 -7.52273542 0 0 Z M-35.1640625 5.51171875 C-36.0509375 6.04796875 -36.9378125 6.58421875 -37.8515625 7.13671875 C-42.58254216 11.99556272 -45.44284682 17.81063505 -45.6640625 24.63671875 C-45.14179036 32.99307305 -42.41823917 38.11853525 -36.265625 43.8125 C-31.18169868 47.92310957 -26.1935269 49.14621674 -19.78515625 48.921875 C-12.46092093 47.7757577 -6.86814207 43.98226077 -2.3203125 38.2578125 C1.95571364 31.80043518 1.60185924 25.01301413 0.8359375 17.51171875 C-1.61939046 10.53563674 -7.12140499 6.20858544 -13.4140625 2.69921875 C-21.55793606 0.12032546 -28.01007587 0.92418472 -35.1640625 5.51171875 Z " fill="#F7F6FB" transform="translate(119.1640625,62.48828125)"/>
<path d="M0 0 C4.29 0 8.58 0 13 0 C13.33 0.66 13.66 1.32 14 2 C14.9178125 1.94199219 15.835625 1.88398437 16.78125 1.82421875 C24.58419076 1.53734593 30.09944583 1.57746541 36 7 C42.78441741 13.96778004 43.33409394 20.55769341 43.26367188 29.92382812 C43.23861395 31.26172502 43.21321921 32.59961565 43.1875 33.9375 C43.17242992 35.30271966 43.15874561 36.66795535 43.14648438 38.03320312 C43.11126419 41.35564088 43.05746153 44.67787248 43 48 C38.71 48 34.42 48 30 48 C29.98582031 46.03675781 29.97164062 44.07351562 29.95703125 42.05078125 C29.91013215 39.47133061 29.86188476 36.89190424 29.8125 34.3125 C29.80669922 33.01892578 29.80089844 31.72535156 29.79492188 30.39257812 C29.76591797 29.14541016 29.73691406 27.89824219 29.70703125 26.61328125 C29.6913208 25.46641846 29.67561035 24.31955566 29.65942383 23.13793945 C28.80629144 19.0782169 27.19737343 17.56279374 24 15 C20.95691709 14.24984805 20.95691709 14.24984805 18 15 C15.03890501 17.22789714 14.10043109 18.42669835 13.45410156 22.11621094 C13.4331543 23.31020508 13.41220703 24.50419922 13.390625 25.734375 C13.35839844 27.02988281 13.32617188 28.32539062 13.29296875 29.66015625 C13.27822531 31.02343302 13.26390778 32.38671445 13.25 33.75 C13.22183186 35.12894376 13.19190322 36.50785275 13.16015625 37.88671875 C13.0894407 41.2574935 13.04245906 44.62875093 13 48 C8.71 48 4.42 48 0 48 C0 32.16 0 16.32 0 0 Z " fill="#754AF1" transform="translate(629,60)"/>
<path d="M0 0 C0 17.82 0 35.64 0 54 C9.9 54 19.8 54 30 54 C30 57.96 30 61.92 30 66 C15.81 66 1.62 66 -13 66 C-13 45.54 -13 25.08 -13 4 C-3 0 -3 0 0 0 Z " fill="#000000" transform="translate(217,42)"/>
<path d="M0 0 C0 3.96 0 7.92 0 12 C-6.625 14.875 -6.625 14.875 -10 16 C-11.02700444 18.32891096 -11.02700444 18.32891096 -11.6875 21.0625 C-12.120625 22.691875 -12.55375 24.32125 -13 26 C-8.71 26 -4.42 26 0 26 C0 29.96 0 33.92 0 38 C-4.29 38 -8.58 38 -13 38 C-13 49.55 -13 61.1 -13 73 C-17.29 73 -21.58 73 -26 73 C-26.12416098 65.63515275 -26.21460693 58.27092297 -26.2746582 50.90527344 C-26.29970793 48.40288674 -26.33375742 45.90057252 -26.37719727 43.3984375 C-26.43826661 39.78887993 -26.46630674 36.18029481 -26.48828125 32.5703125 C-26.51408768 31.46261505 -26.5398941 30.3549176 -26.56648254 29.21365356 C-26.56963807 20.35386156 -24.3132223 13.90790322 -18.5625 7.125 C-12.2927314 1.92567969 -8.1648645 -0.15405405 0 0 Z " fill="#040404" transform="translate(375,35)"/>
<path d="M0 0 C0 4.95 0 9.9 0 15 C4.62 15 9.24 15 14 15 C14 18.96 14 22.92 14 27 C9.38 27 4.76 27 0 27 C0.103125 29.041875 0.20625 31.08375 0.3125 33.1875 C0.39951172 34.91033203 0.39951172 34.91033203 0.48828125 36.66796875 C1.02550649 40.16608423 2.06897589 42.0853443 4 45 C4 45.66 4 46.32 4 47 C8.95 48.485 8.95 48.485 14 50 C14 54.29 14 58.58 14 63 C5.70835417 62.48177214 -0.60587735 60.97818581 -6.3125 54.625 C-12.07753306 47.29338187 -13.1594955 40.76232244 -13.09765625 31.63671875 C-13.0962413 30.84473587 -13.09482635 30.05275299 -13.09336853 29.23677063 C-13.08779457 26.72030781 -13.07524693 24.20393569 -13.0625 21.6875 C-13.05748163 19.97591275 -13.05291931 18.26432409 -13.04882812 16.55273438 C-13.03783368 12.36845492 -13.02058707 8.18424281 -13 4 C-11.39850114 3.32694982 -9.79368971 2.66177773 -8.1875 2 C-7.29417969 1.62875 -6.40085937 1.2575 -5.48046875 0.875 C-3 0 -3 0 0 0 Z " fill="#764BF1" transform="translate(715,46)"/>
<path d="M0 0 C0 4.95 0 9.9 0 15 C4.29 15 8.58 15 13 15 C13 18.96 13 22.92 13 27 C8.71 27 4.42 27 0 27 C-0.31499713 36.93273162 -0.31499713 36.93273162 3.125 45.8125 C6.51398234 48.39107352 8.85686659 49.1876209 13 50 C13 54.29 13 58.58 13 63 C5.01171384 62.50841316 0.60911826 61.00759855 -5.625 55.8125 C-11.42222802 48.94736156 -13.76021124 43.1129807 -13.48828125 34.15234375 C-13.48120651 33.25504044 -13.47413177 32.35773712 -13.46684265 31.4332428 C-13.43911714 28.60043739 -13.37642402 25.76969586 -13.3125 22.9375 C-13.28738873 21.00328399 -13.26458055 19.06903664 -13.24414062 17.13476562 C-13.18936272 12.4223962 -13.10324675 7.71154652 -13 3 C-11.58603098 2.49242138 -10.16868271 1.99425075 -8.75 1.5 C-7.96109375 1.2215625 -7.1721875 0.943125 -6.359375 0.65625 C-4 0 -4 0 0 0 Z " fill="#060606" transform="translate(414,46)"/>
<path d="M0 0 C0 4.29 0 8.58 0 13 C-1.216875 13.20625 -2.43375 13.4125 -3.6875 13.625 C-8.53197516 14.8103503 -10.21794459 16.95337395 -13 21 C-14.31361698 23.62723396 -14.21253909 25.72610561 -14.31640625 28.6640625 C-14.35830078 29.78554687 -14.40019531 30.90703125 -14.44335938 32.0625 C-14.50233398 33.8259375 -14.50233398 33.8259375 -14.5625 35.625 C-14.60568359 36.80835938 -14.64886719 37.99171875 -14.69335938 39.2109375 C-14.79967338 42.14047907 -14.90036217 45.07022377 -15 48 C-19.29 48 -23.58 48 -28 48 C-28.10856412 43.85345366 -28.18760125 39.70978832 -28.25 35.5625 C-28.28351562 34.39783203 -28.31703125 33.23316406 -28.3515625 32.03320312 C-28.46897221 21.61309167 -26.13815763 14.43980517 -18.984375 6.796875 C-13.10623235 1.4741474 -7.89102902 -0.71736627 0 0 Z " fill="#7449F1" transform="translate(558,60)"/>
<path d="M0 0 C3.98112863 1.77101678 7.10749468 3.99593151 10 7.25 C11.67980533 11.86946466 11.90583575 16.33878762 10.30859375 21.03125 C8.75135188 24.1066398 7.05549196 25.96090339 4.25 27.9375 C-0.99504143 29.65222508 -5.02858921 29.68241143 -10.25 27.875 C-13.73665715 25.49773376 -15.21049365 23.85432136 -17 20 C-17.81275341 15.35469389 -18.11931023 11.02920113 -15.7890625 6.8046875 C-11.31107506 1.37200223 -7.17300301 -0.83685035 0 0 Z " fill="#F6F6F6" transform="translate(418,130)"/>
<path d="M0 0 C0 16.17 0 32.34 0 49 C-4.29 49 -8.58 49 -13 49 C-13 34.15 -13 19.3 -13 4 C-2.33333333 0 -2.33333333 0 0 0 Z " fill="#774DF1" transform="translate(598,59)"/>
<path d="M0 0 C4.86687165 0.05773276 8.30499259 0.24436945 12.3125 3.25 C16.02575444 7.35412333 16.95672858 10.69029367 16.703125 16.0703125 C15.9233341 20.42154569 13.50135125 23.17260356 10.3125 26.0625 C6.69172114 28.21233745 3.28150514 28.38727919 -0.875 28.375 C-1.75542969 28.37757813 -2.63585937 28.38015625 -3.54296875 28.3828125 C-5.6875 28.25 -5.6875 28.25 -6.6875 27.25 C-6.78721786 25.33541718 -6.81830589 23.41717683 -6.8203125 21.5 C-6.82160156 20.3346875 -6.82289063 19.169375 -6.82421875 17.96875 C-6.82035156 16.7415625 -6.81648437 15.514375 -6.8125 14.25 C-6.81636719 13.0228125 -6.82023438 11.795625 -6.82421875 10.53125 C-6.82292969 9.3659375 -6.82164062 8.200625 -6.8203125 7 C-6.81918457 5.92234375 -6.81805664 4.8446875 -6.81689453 3.734375 C-6.57641222 -0.88288533 -4.07308372 0.06011932 0 0 Z " fill="#424146" transform="translate(532.6875,130.75)"/>
<path d="M0 0 C2.81992717 1.82120296 4.50345478 3.00690956 6 6 C6.39431433 10.73177192 6.45299639 13.09400722 4.3125 17.375 C1.07728202 21.0474096 -1.20942632 21.81348191 -6 22.3125 C-9.54820749 21.94289505 -11.2303934 21.24562697 -14 19 C-16.6227571 14.93020449 -17.61569457 11.82294079 -17 7 C-13.52948316 -0.85432758 -7.78520689 -2.11554535 0 0 Z " fill="#F6F6F6" transform="translate(301,74)"/>
<path d="M0 0 C4 1 4 1 5.28027344 2.73413086 C5.63637695 3.47026611 5.99248047 4.20640137 6.359375 4.96484375 C6.75253906 5.76470703 7.14570312 6.56457031 7.55078125 7.38867188 C7.94652344 8.22978516 8.34226562 9.07089844 8.75 9.9375 C9.16121094 10.77474609 9.57242188 11.61199219 9.99609375 12.47460938 C13 18.6770271 13 18.6770271 13 21 C13.66 21 14.32 21 15 21 C15.24492188 20.17242187 15.48984375 19.34484375 15.7421875 18.4921875 C17.19193489 14.46711244 19.0723051 10.86772286 21.125 7.125 C21.49753906 6.43664062 21.87007812 5.74828125 22.25390625 5.0390625 C23.16499526 3.35705202 24.08190315 1.67819564 25 0 C25.99 0 26.98 0 28 0 C28 8.91 28 17.82 28 27 C26.68 27 25.36 27 24 27 C24 22.05 24 17.1 24 12 C23.34 12 22.68 12 22 12 C21.773125 12.804375 21.54625 13.60875 21.3125 14.4375 C19.66368412 18.91285739 17.39455588 22.88721318 15 27 C10.93237939 25.64412646 10.13665748 23.0515406 8.3125 19.4375 C7.99216797 18.82197266 7.67183594 18.20644531 7.34179688 17.57226562 C6.55253629 16.0526445 5.77512085 14.52688189 5 13 C4.67 17.62 4.34 22.24 4 27 C2.68 27 1.36 27 0 27 C0 18.09 0 9.18 0 0 Z " fill="#3F3E43" transform="translate(665,131)"/>
<path d="M0 0 C12 0 12 0 15.25 1.5 C17.39096323 4.5585189 17.58604265 6.44836413 17.3828125 10.11328125 C16.8801342 12.59076718 15.50802519 14.01214861 14 16 C14.73372776 18.93491105 15.81012159 20.76089386 17.6875 23.125 C18.120625 23.74375 18.55375 24.3625 19 25 C18.67 25.99 18.34 26.98 18 28 C14.52833292 26.59812175 13.28622126 25.22390282 11.5625 21.9375 C9.67633748 18.5794727 9.67633748 18.5794727 6.1875 17 C5.465625 17 4.74375 17 4 17 C4 20.3 4 23.6 4 27 C2.68 27 1.36 27 0 27 C0 18.09 0 9.18 0 0 Z " fill="#3D3C40" transform="translate(564,131)"/>
<path d="M0 0 C12 0 12 0 15.25 1.5 C17.39096323 4.5585189 17.58604265 6.44836413 17.3828125 10.11328125 C16.8801342 12.59076718 15.50802519 14.01214861 14 16 C14.73372776 18.93491105 15.81012159 20.76089386 17.6875 23.125 C18.120625 23.74375 18.55375 24.3625 19 25 C18.67 25.99 18.34 26.98 18 28 C14.52833292 26.59812175 13.28622126 25.22390282 11.5625 21.9375 C9.67633748 18.5794727 9.67633748 18.5794727 6.1875 17 C5.465625 17 4.74375 17 4 17 C4 20.3 4 23.6 4 27 C2.68 27 1.36 27 0 27 C0 18.09 0 9.18 0 0 Z " fill="#3C3B40" transform="translate(484,131)"/>
<path d="M0 0 C12 0 12 0 15.25 2.0625 C17.41751457 5.70082802 17.54067673 7.82906526 17 12 C16.01 13.485 16.01 13.485 15 15 C14.34 15 13.68 15 13 15 C13.27714844 15.51949219 13.55429688 16.03898437 13.83984375 16.57421875 C15.80733267 20.36216005 17.46337389 23.70699113 18 28 C17.01 28 16.02 28 15 28 C13.60546875 25.84765625 13.60546875 25.84765625 12.1875 23.0625 C9.93008105 18.809978 9.93008105 18.809978 5.625 16.875 C4.75875 16.91625 3.8925 16.9575 3 17 C3 20.63 3 24.26 3 28 C2.01 28 1.02 28 0 28 C0 18.76 0 9.52 0 0 Z " fill="#39383C" transform="translate(236,131)"/>
<path d="M0 0 C13 0 13 0 16.3125 2 C18.48141799 5.85585421 19.05342964 8.68180907 18 13 C16.0625 16 16.0625 16 13 18 C9.87343604 18.40258432 7.17488991 18.23693208 4 18 C4 20.97 4 23.94 4 27 C2.68 27 1.36 27 0 27 C0 18.09 0 9.18 0 0 Z " fill="#38373C" transform="translate(204,131)"/>
<path d="M0 0 C2.371875 -0.103125 4.74375 -0.20625 7.1875 -0.3125 C7.92508545 -0.35802002 8.6626709 -0.40354004 9.42260742 -0.45043945 C13.31616547 -0.53193864 14.87606989 -0.09744373 17.9609375 2.328125 C20 5 20 5 20.4375 8.0625 C20.01257513 10.91556699 19.66912169 12.66322963 18 15 C12.83295357 18.50266128 5.91676986 17.10956981 0 17 C0 11.39 0 5.78 0 0 Z " fill="#FAF9FB" transform="translate(469,55)"/>
<path d="M0 0 C0.99 0 1.98 0 3 0 C4.68170573 3.72256299 6.34267004 7.45402832 8 11.1875 C8.47695313 12.24259766 8.95390625 13.29769531 9.4453125 14.38476562 C9.89648438 15.40634766 10.34765625 16.42792969 10.8125 17.48046875 C11.44091797 18.88655396 11.44091797 18.88655396 12.08203125 20.32104492 C13.02266203 23.06613576 13.18256337 25.12234491 13 28 C12.01 28 11.02 28 10 28 C9.34 26.35 8.68 24.7 8 23 C5.89758397 22.86503749 3.7927039 22.76802693 1.6875 22.6875 C0.51574219 22.62949219 -0.65601563 22.57148438 -1.86328125 22.51171875 C-5.20099769 22.660191 -5.20099769 22.660191 -6.91796875 25.51953125 C-7.27503906 26.33808594 -7.63210938 27.15664062 -8 28 C-8.99 27.67 -9.98 27.34 -11 27 C-9.1030492 20.86280622 -6.81365651 14.93805724 -4.375 9 C-3.90501587 7.85059937 -3.90501587 7.85059937 -3.42553711 6.67797852 C-1.12592536 1.12592536 -1.12592536 1.12592536 0 0 Z " fill="#414044" transform="translate(638,131)"/>
<path d="M0 0 C4.32275787 1.08068947 4.70335319 1.40718375 7.1640625 4.78125 C7.72867187 5.54050781 8.29328125 6.29976562 8.875 7.08203125 C9.4525 7.87996094 10.03 8.67789063 10.625 9.5 C11.78046753 11.07540617 12.93916649 12.64844897 14.1015625 14.21875 C14.61025879 14.91935547 15.11895508 15.61996094 15.64306641 16.34179688 C16.91661099 18.12871497 16.91661099 18.12871497 19 19 C19 12.73 19 6.46 19 0 C20.32 0.33 21.64 0.66 23 1 C23 9.58 23 18.16 23 27 C21.68 27.33 20.36 27.66 19 28 C18.62190186 27.45996338 18.24380371 26.91992676 17.85424805 26.36352539 C16.1398316 23.92423381 14.41386216 21.49335001 12.6875 19.0625 C11.79514648 17.78729492 11.79514648 17.78729492 10.88476562 16.48632812 C10.30791016 15.67744141 9.73105469 14.86855469 9.13671875 14.03515625 C8.34334106 12.91185913 8.34334106 12.91185913 7.53393555 11.76586914 C6.02420871 9.72538905 6.02420871 9.72538905 3 9 C3 15.27 3 21.54 3 28 C2.01 28 1.02 28 0 28 C0 18.76 0 9.52 0 0 Z " fill="#3F3E43" transform="translate(288,131)"/>
<path d="M0 0 C9.22222222 0 9.22222222 0 13 3 C15.7048992 7.0573488 15.75306716 10.23867212 15 15 C13.74938904 18.12335325 12.82616201 18.79559363 10 21 C6.7 21 3.4 21 0 21 C0 14.07 0 7.14 0 0 Z " fill="#F5F5F5" transform="translate(530,134)"/>
<path d="M0 0 C3.98112863 1.77101678 7.10749468 3.99593151 10 7.25 C11.67980533 11.86946466 11.90583575 16.33878762 10.30859375 21.03125 C8.75135188 24.1066398 7.05549196 25.96090339 4.25 27.9375 C-0.99504143 29.65222508 -5.02858921 29.68241143 -10.25 27.875 C-13.73665715 25.49773376 -15.21049365 23.85432136 -17 20 C-17.81275341 15.35469389 -18.11931023 11.02920113 -15.7890625 6.8046875 C-11.31107506 1.37200223 -7.17300301 -0.83685035 0 0 Z M-12.96484375 9 C-14.64209409 12.24057424 -14.64709566 14.44097386 -14 18 C-12.3562347 21.11141288 -10.96963114 23.28893717 -8.125 25.375 C-4.13655324 26.54807258 -1.12665879 26.49782598 2.6875 24.8125 C6.26262324 22.01037638 7.76692757 19.56491487 8.4375 15.0625 C7.8806713 11.16469912 6.43417323 9.06010349 4 6 C0.45789856 3.63859904 -1.53929649 3.39693652 -5.703125 3.4921875 C-9.26309381 4.27925543 -10.87197883 6.10846517 -12.96484375 9 Z " fill="#3C3B40" transform="translate(418,130)"/>
<path d="M0 0 C6.6 0 13.2 0 20 0 C20 0.99 20 1.98 20 3 C14.72 3 9.44 3 4 3 C4 5.97 4 8.94 4 12 C7.63 12 11.26 12 15 12 C15 13.32 15 14.64 15 16 C11.37 16 7.74 16 4 16 C4 18.64 4 21.28 4 24 C8.95 24 13.9 24 19 24 C19 25.32 19 26.64 19 28 C16.02077407 28.02683987 13.04178705 28.04676037 10.0625 28.0625 C8.78729492 28.07506836 8.78729492 28.07506836 7.48632812 28.08789062 C6.67744141 28.09111328 5.86855469 28.09433594 5.03515625 28.09765625 C4.2862915 28.10289307 3.53742676 28.10812988 2.76586914 28.11352539 C1 28 1 28 0 27 C-0.08758003 25.00035018 -0.10696576 22.9976389 -0.09765625 20.99609375 C-0.09443359 19.78115234 -0.09121094 18.56621094 -0.08789062 17.31445312 C-0.07951172 16.03505859 -0.07113281 14.75566406 -0.0625 13.4375 C-0.05798828 12.15423828 -0.05347656 10.87097656 -0.04882812 9.54882812 C-0.03699555 6.3658658 -0.01905944 3.18292726 0 0 Z " fill="#403F44" transform="translate(596,131)"/>
<path d="M0 0 C1.32 0 2.64 0 4 0 C4.02187378 0.93066284 4.02187378 0.93066284 4.04418945 1.88012695 C4.11866588 4.69154633 4.21532564 7.50177749 4.3125 10.3125 C4.33505859 11.28896484 4.35761719 12.26542969 4.38085938 13.27148438 C4.41630859 14.20927734 4.45175781 15.14707031 4.48828125 16.11328125 C4.51446533 16.97735596 4.54064941 17.84143066 4.56762695 18.73168945 C5.08833918 21.46344398 5.76226777 22.38037921 8 24 C11.57814178 24.39034274 13.99902662 24.55809747 17.18457031 22.78198242 C19.51430425 20.49517123 19.53122961 19.3367785 19.609375 16.11328125 C19.64160156 15.17548828 19.67382812 14.23769531 19.70703125 13.27148438 C19.72121094 12.29501953 19.73539062 11.31855469 19.75 10.3125 C19.79447266 8.83040039 19.79447266 8.83040039 19.83984375 7.31835938 C19.91055492 4.87882404 19.96324265 2.44024475 20 0 C21.32 0.33 22.64 0.66 24 1 C24.0875127 4.22899426 24.14056146 7.45768116 24.1875 10.6875 C24.21263672 11.59951172 24.23777344 12.51152344 24.26367188 13.45117188 C24.35882136 22.17320802 24.35882136 22.17320802 21 26 C16.59745344 29.0622364 11.12823673 28.76733616 6 28 C3.10316132 25.7984026 1.60702769 24.21405538 0 21 C-0.08400529 19.40552536 -0.10727467 17.80759455 -0.09765625 16.2109375 C-0.09443359 15.26992187 -0.09121094 14.32890625 -0.08789062 13.359375 C-0.07951172 12.37453125 -0.07113281 11.3896875 -0.0625 10.375 C-0.05798828 9.38242188 -0.05347656 8.38984375 -0.04882812 7.3671875 C-0.03702145 4.9113984 -0.020554 2.45572896 0 0 Z " fill="#3F3E43" transform="translate(444,131)"/>
<path d="M0 0 C2.51532261 1.41932147 3.96183171 2.86240887 6 5 C6 5.99 6 6.98 6 8 C4.68 7.67 3.36 7.34 2 7 C2 6.34 2 5.68 2 5 C-1.3 5 -4.6 5 -8 5 C-8.33 6.98 -8.66 8.96 -9 11 C-8.16855469 11.18175781 -7.33710937 11.36351562 -6.48046875 11.55078125 C-5.39378906 11.80214844 -4.30710937 12.05351562 -3.1875 12.3125 C-1.56908203 12.67794922 -1.56908203 12.67794922 0.08203125 13.05078125 C2.98695568 13.99575667 4.28072782 14.51266808 6 17 C6.55618667 19.704594 6.42629934 22.27736823 6 25 C4.18836733 27.67431489 3.12238923 27.95920359 0 29 C-4.6082823 29.52641427 -7.97660991 29.58479434 -12.0625 27.25 C-14 25 -14 25 -14 21 C-11.54314575 21.42359556 -10.3035088 21.65510363 -8.625 23.5625 C-6.98312436 25.29561601 -6.98312436 25.29561601 -4 25.3125 C-0.82058486 25.21659125 -0.82058486 25.21659125 2 23 C1.67 21.35 1.34 19.7 1 18 C0.32453125 17.82984375 -0.3509375 17.6596875 -1.046875 17.484375 C-10.54630552 14.90360486 -10.54630552 14.90360486 -13 11 C-13.5 8 -13.5 8 -13 5 C-9.12452614 0.22024891 -6.1020188 -0.61020188 0 0 Z " fill="#3E3D42" transform="translate(722,130)"/>
<path d="M0 0 C1.7734375 0.15234375 1.7734375 0.15234375 4 1 C5.8515625 3.50390625 5.8515625 3.50390625 7.625 6.5625 C8.70003184 8.4050764 9.81398733 10.22682342 11 12 C11.66 12 12.32 12 13 12 C14.84731785 9.23812331 16.48197644 6.37800098 18.1484375 3.50390625 C20 1 20 1 22.2265625 0.15234375 C22.81179688 0.10207031 23.39703125 0.05179688 24 0 C23.39982512 3.96678086 21.36439592 6.39167618 19 9.5625 C14.9838536 15.39308397 13.77881333 19.97732324 14 27 C12.68 27 11.36 27 10 27 C10.03222656 26.44054687 10.06445312 25.88109375 10.09765625 25.3046875 C9.9923212 18.02486529 7.22011244 13.51232096 3.15063477 7.73583984 C0 3.25226852 0 3.25226852 0 0 Z " fill="#3F3E43" transform="translate(367,131)"/>
<path d="M0 0 C7.26 0 14.52 0 22 0 C22 0.99 22 1.98 22 3 C19.03 3 16.06 3 13 3 C13 10.92 13 18.84 13 27 C11.68 27 10.36 27 9 27 C9 19.08 9 11.16 9 3 C6.03 3 3.06 3 0 3 C0 2.01 0 1.02 0 0 Z " fill="#38373C" transform="translate(324,131)"/>
<path d="M0 0 C0.99 0 1.98 0 3 0 C3 8.91 3 17.82 3 27 C1.68 27 0.36 27 -1 27 C-1 22.05 -1 17.1 -1 12 C-2.65 12.33 -4.3 12.66 -6 13 C-4.58707905 8.1725201 -2.57025846 4.2837641 0 0 Z " fill="#39383D" transform="translate(690,131)"/>
<path d="M0 0 C6.25925926 -0.48148148 6.25925926 -0.48148148 9.5 1.625 C11 4 11 4 10.9375 7.125 C10 10 10 10 7 12 C4.66800612 12.07905064 2.33167378 12.08798769 0 12 C0 8.04 0 4.08 0 0 Z " fill="#F2F2F3" transform="translate(208,134)"/>
<path d="M0 0 C3.1875 0.3125 3.1875 0.3125 5.625 2 C7.1875 4.3125 7.1875 4.3125 7 7 C6.1875 9.3125 6.1875 9.3125 5.1875 10.3125 C3.66821962 10.38429964 2.14582518 10.39642007 0.625 10.375 C-0.20128906 10.36597656 -1.02757812 10.35695312 -1.87890625 10.34765625 C-2.51699219 10.33605469 -3.15507812 10.32445312 -3.8125 10.3125 C-3.83939216 8.83343108 -3.85884621 7.35422517 -3.875 5.875 C-3.88660156 5.05128906 -3.89820313 4.22757813 -3.91015625 3.37890625 C-3.75802045 0.15971273 -3.24824156 0.36091573 0 0 Z " fill="#EEEEEE" transform="translate(242.8125,133.6875)"/>
<path d="M0 0 C5.41538462 -0.36923077 5.41538462 -0.36923077 8.375 1.5 C8.91125 1.995 9.4475 2.49 10 3 C9.125 8.875 9.125 8.875 8 10 C5.32941149 10.14115161 2.67567762 10.04247107 0 10 C0 6.7 0 3.4 0 0 Z " fill="#F8F8F8" transform="translate(568,134)"/>
<path d="M0 0 C5.41538462 -0.36923077 5.41538462 -0.36923077 8.375 1.5 C8.91125 1.995 9.4475 2.49 10 3 C9.125 8.875 9.125 8.875 8 10 C5.32941149 10.14115161 2.67567762 10.04247107 0 10 C0 6.7 0 3.4 0 0 Z " fill="#F8F8F8" transform="translate(488,134)"/>
<path d="M0 0 C0.99 0 1.98 0 3 0 C3 9.24 3 18.48 3 28 C2.01 28 1.02 28 0 28 C0 18.76 0 9.52 0 0 Z " fill="#333237" transform="translate(268,131)"/>
<path d="M0 0 C0.99 0.33 1.98 0.66 3 1 C3.94921875 3.06640625 3.94921875 3.06640625 4.6875 5.5625 C5.06455078 6.80193359 5.06455078 6.80193359 5.44921875 8.06640625 C5.63097656 8.70449219 5.81273437 9.34257812 6 10 C3.03 10 0.06 10 -3 10 C-2.39009109 6.44219804 -1.4216319 3.3171411 0 0 Z " fill="#F3F3F3" transform="translate(638,139)"/>
</svg>
